<svg width="42" height="43" viewBox="0 0 42 43" fill="none" xmlns="http://www.w3.org/2000/svg">
<path d="M21 0.700195C9.41333 0.700195 0 10.1136 0 21.7003C0 33.2871 9.41333 42.7004 21 42.7004C32.5867 42.7004 42 33.2871 42 21.7003C42 10.1136 32.5867 0.700195 21 0.700195ZM21 2.6093C31.5549 2.6093 40.0909 11.1453 40.0909 21.7003C40.0909 32.2553 31.5549 40.7913 21 40.7913C10.4451 40.7913 1.90909 32.2553 1.90909 21.7003C1.90909 11.1453 10.4451 2.6093 21 2.6093ZM31.1122 13.5717C30.8629 13.5816 30.6273 13.6886 30.456 13.87L18.1364 26.5327L12.7372 20.9844C12.6505 20.8926 12.5464 20.8189 12.4309 20.7676C12.3155 20.7163 12.191 20.6885 12.0648 20.6856C11.9385 20.6828 11.8129 20.705 11.6953 20.7511C11.5777 20.7971 11.4704 20.8661 11.3796 20.9539C11.2888 21.0417 11.2163 21.1467 11.1664 21.2627C11.1165 21.3787 11.0901 21.5035 11.0887 21.6298C11.0874 21.7561 11.1111 21.8814 11.1585 21.9985C11.206 22.1156 11.2762 22.2221 11.3651 22.3118L17.4503 28.5611C17.5393 28.6531 17.6459 28.7263 17.7638 28.7763C17.8816 28.8262 18.0083 28.852 18.1364 28.852C18.2644 28.852 18.3911 28.8262 18.509 28.7763C18.6268 28.7263 18.7334 28.6531 18.8224 28.5611L31.8281 15.1974C31.963 15.0613 32.0537 14.8877 32.0886 14.6993C32.1235 14.5108 32.1008 14.3162 32.0236 14.1409C31.9463 13.9655 31.8181 13.8174 31.6556 13.7159C31.493 13.6144 31.3037 13.5641 31.1122 13.5717Z" fill="#6ABC35"/>
</svg>
