<svg width="29" height="30" viewBox="0 0 29 30" fill="none" xmlns="http://www.w3.org/2000/svg">
<path d="M14.0922 0.870117C6.36321 0.870117 0.0839844 7.32498 0.0839844 15.2701C0.0839844 23.2153 6.36321 29.6701 14.0922 29.6701C21.8211 29.6701 28.1004 23.2153 28.1004 15.2701C28.1004 7.32498 21.8211 0.870117 14.0922 0.870117ZM14.0922 2.17921C21.1329 2.17921 26.8269 8.03247 26.8269 15.2701C26.8269 22.5078 21.1329 28.361 14.0922 28.361C7.05144 28.361 1.35746 22.5078 1.35746 15.2701C1.35746 8.03247 7.05144 2.17921 14.0922 2.17921ZM20.8376 9.69625C20.6713 9.703 20.5141 9.77643 20.3998 9.9008L12.182 18.5838L8.58043 14.7792C8.52256 14.7163 8.45312 14.6657 8.37612 14.6306C8.29912 14.5954 8.2161 14.5763 8.13186 14.5743C8.04763 14.5724 7.96386 14.5877 7.8854 14.6192C7.80694 14.6508 7.73536 14.6981 7.6748 14.7583C7.61425 14.8185 7.56592 14.8905 7.53262 14.9701C7.49931 15.0496 7.4817 15.1352 7.4808 15.2218C7.4799 15.3084 7.49573 15.3943 7.52737 15.4746C7.55901 15.5549 7.60583 15.6279 7.66512 15.6894L11.7243 19.9747C11.7837 20.0378 11.8548 20.0879 11.9334 20.1222C12.012 20.1564 12.0966 20.1741 12.182 20.1741C12.2674 20.1741 12.3519 20.1564 12.4305 20.1222C12.5091 20.0879 12.5802 20.0378 12.6396 19.9747L21.3151 10.811C21.4051 10.7177 21.4656 10.5986 21.4889 10.4694C21.5121 10.3402 21.497 10.2068 21.4455 10.0865C21.394 9.96627 21.3085 9.86473 21.2 9.79513C21.0916 9.72552 20.9653 9.69107 20.8376 9.69625Z" fill="#F7FBFA"/>
</svg>
