<svg width="115" height="27" viewBox="0 0 115 27" fill="none" xmlns="http://www.w3.org/2000/svg">
<path d="M12.997 0.434439L11.9833 5.17708H9.59389L5.21328 25.7768H0L4.3806 5.17708H1.99118L3.00488 0.434439H12.997Z" fill="#F7FBFA"/>
<path d="M14.5207 26.2112C12.6863 26.2112 11.3106 25.7044 10.3935 24.6907C9.50045 23.6529 9.23496 22.2771 9.597 20.5635L13.869 0.434439H19.0823L14.8103 20.5635C14.7379 20.829 14.7741 21.0462 14.9189 21.2152C15.0637 21.3841 15.2689 21.4686 15.5343 21.4686C16.1619 21.4686 16.536 21.1669 16.6566 20.5635L20.9648 0.434439H26.1781L21.8699 20.5635C21.5079 22.253 20.6511 23.6166 19.2995 24.6545C17.972 25.6923 16.3791 26.2112 14.5207 26.2112Z" fill="#F7FBFA"/>
<path d="M34.1782 0.434439C35.8677 0.434439 37.1348 0.905083 37.9796 1.84637C38.8243 2.78766 39.0777 4.04271 38.7398 5.61152L37.5089 11.4041C37.1952 12.9487 36.4228 14.1796 35.1919 15.0968L34.9385 25.7768H29.7252L30.1959 16.4363H29.3632L27.372 25.7768H22.1587L27.553 0.434439H34.1782ZM28.0599 11.8747L28.0236 12.0195H31.2457C31.8733 12.0195 32.2474 11.7057 32.3681 11.0782L33.4179 6.08216C33.4904 5.81667 33.4542 5.59945 33.3093 5.4305C33.1645 5.26155 32.9594 5.17708 32.6939 5.17708H31.7526L30.5217 10.9696L28.0599 11.8747Z" fill="#F7FBFA"/>
<path d="M47.9355 0.434439C49.5767 0.434439 50.7956 0.893014 51.592 1.81017C52.4126 2.72732 52.6661 3.94616 52.3523 5.4667L51.6644 8.79741C51.2059 10.6317 50.2404 11.8868 48.7682 12.5626L48.6958 12.7436C49.3474 13.0815 49.7939 13.6125 50.0353 14.3365C50.3008 15.0606 50.337 15.8209 50.1439 16.6173L49.275 20.7445C48.9613 22.2651 48.201 23.4839 46.9942 24.4011C45.7874 25.3182 44.3634 25.7768 42.7222 25.7768H35.735L41.1293 0.434439H47.9355ZM46.9942 6.08216C47.0666 5.81667 47.0304 5.59945 46.8856 5.4305C46.7408 5.26155 46.5356 5.17708 46.2701 5.17708H45.3289L44.3876 9.66629L41.9257 10.5714L41.8895 10.7162H45.1116C45.715 10.7162 46.0771 10.4024 46.1977 9.7749L46.9942 6.08216ZM45.0754 16.0381C45.1961 15.4347 44.9427 15.133 44.3152 15.133H43.1929L42.1792 20.0204L39.7173 20.8893L39.6811 21.0341H43.0842C43.7118 21.0341 44.0859 20.7324 44.2065 20.1291L45.0754 16.0381Z" fill="#F7FBFA"/>
<path d="M55.2132 26.2112C53.3789 26.2112 52.0032 25.7044 51.086 24.6907C50.193 23.6529 49.9155 22.2771 50.2534 20.5635L53.4392 5.64772C53.8013 3.95823 54.646 2.59457 55.9735 1.55674C57.3251 0.518914 58.9301 0 60.7885 0C62.647 0 64.0227 0.518914 64.9157 1.55674C65.8329 2.59457 66.0984 3.95823 65.7122 5.64772L62.5625 20.5635C62.2005 22.253 61.3436 23.6166 59.9921 24.6545C58.6646 25.6923 57.0716 26.2112 55.2132 26.2112ZM56.2269 21.4686C56.8062 21.4686 57.1803 21.1669 57.3492 20.5635L60.4989 5.64772C60.5713 5.38223 60.5351 5.16501 60.3903 4.99606C60.2455 4.82711 60.0403 4.74264 59.7748 4.74264C59.1473 4.74264 58.7732 5.04433 58.6525 5.64772L55.4666 20.5635C55.346 21.1669 55.5994 21.4686 56.2269 21.4686Z" fill="#F7FBFA"/>
<path d="M71.5056 9.59389L69.0075 10.499L68.9713 10.6438H74.5104L73.5329 15.2054H70.2746L69.261 20.0204L66.7991 20.8893L66.7629 21.0341H72.7003L71.6866 25.7768H62.8168L68.2111 0.434439H77.0809L76.0672 5.17708H72.4106L71.5056 9.59389Z" fill="#F7FBFA"/>
<path d="M84.6969 0.434439C86.4346 0.434439 87.7259 0.929218 88.5706 1.91878C89.4395 2.8842 89.705 4.16338 89.3671 5.75633L86.2536 20.4549C85.9157 22.0478 85.1072 23.3391 83.828 24.3286C82.5488 25.2941 81.0403 25.7768 79.3026 25.7768H72.8222L78.2165 0.434439H84.6969ZM84.0814 6.08216C84.1538 5.81667 84.1176 5.59945 83.9728 5.4305C83.828 5.26155 83.6228 5.17708 83.3573 5.17708H82.4161L79.2664 20.0204L76.8045 20.8893L76.7683 21.0341H79.9904C80.618 21.0341 80.9921 20.7324 81.1127 20.1291L84.0814 6.08216Z" fill="#F7FBFA"/>
<path d="M93.1668 1.55674C94.5183 0.518914 96.1234 0 97.9818 0C99.8402 0 101.216 0.518914 102.109 1.55674C103.026 2.59457 103.292 3.95823 102.905 5.64772L102.254 8.94222H97.0405L97.6922 5.64772C97.7646 5.38223 97.7284 5.16501 97.5836 4.99606C97.4388 4.82711 97.2336 4.74264 96.9681 4.74264C96.3406 4.74264 95.9665 5.04433 95.8458 5.64772L92.6599 20.5635C92.6116 20.829 92.6599 21.0462 92.8047 21.2152C92.9495 21.3841 93.1788 21.4686 93.4926 21.4686C94.1442 21.4686 94.5304 21.1669 94.6511 20.5635L95.8458 15.0606H94.7959L95.701 10.7886H101.819L98.6697 25.7768H95.1217L95.3752 24.5097L95.5924 24.039H95.1579L94.9407 24.5097C94.1201 25.644 92.8409 26.2112 91.1032 26.2112C89.655 26.2112 88.581 25.7526 87.8811 24.8355C87.2053 23.9183 87.0243 22.6995 87.338 21.179L90.6325 5.64772C90.9946 3.95823 91.8393 2.59457 93.1668 1.55674Z" fill="#F7FBFA"/>
<path d="M108.734 9.59389L106.236 10.499L106.2 10.6438H111.739L110.762 15.2054H107.503L106.49 20.0204L104.028 20.8893L103.992 21.0341H109.929L108.915 25.7768H100.045L105.44 0.434439H114.31L113.296 5.17708H109.639L108.734 9.59389Z" fill="#F7FBFA"/>
</svg>
