<svg width="40" height="58" viewBox="0 0 40 58" fill="none" xmlns="http://www.w3.org/2000/svg">
<path d="M3.9125 57.6842H36.075C38.2375 57.6842 39.9875 56.0793 39.9875 54.1177V4.18662C39.9875 2.22504 38.225 0.620117 36.075 0.620117H28.65H11.15H3.9125C1.7625 0.620117 0 2.22504 0 4.18662V54.1177C0 56.0793 1.7625 57.6842 3.9125 57.6842ZM27.05 2.99779L26.75 4.16284C26.5625 4.87615 25.8875 5.37546 25.125 5.37546H14.7C13.925 5.37546 13.2625 4.87615 13.075 4.16284L12.75 2.99779H27.05ZM2.5 4.18662C2.5 3.54465 3.15 2.99779 3.9125 2.99779H10.175L10.6375 4.74537C11.1 6.51674 12.775 7.75313 14.7 7.75313H25.125C27.05 7.75313 28.7125 6.51674 29.175 4.74537L29.625 2.99779H36.075C36.85 2.99779 37.5 3.54465 37.5 4.18662V54.1177C37.5 54.7597 36.85 55.3065 36.0875 55.3065H3.9125C3.15 55.3065 2.5 54.7597 2.5 54.1177V4.18662Z" fill="#F7FBFA"/>
<path d="M17.5 52.9285H22.5C23.1875 52.9285 23.75 52.3935 23.75 51.7396C23.75 51.0858 23.1875 50.5508 22.5 50.5508H17.5C16.8125 50.5508 16.25 51.0858 16.25 51.7396C16.25 52.3935 16.8125 52.9285 17.5 52.9285Z" fill="#F7FBFA"/>
</svg>
