<svg width="60" height="58" viewBox="0 0 60 58" fill="none" xmlns="http://www.w3.org/2000/svg">
<path d="M57.2047 0.620117H53.3527H46.936H43.0833C41.542 0.620117 40.288 1.81276 40.288 3.27867V11.825H14.774C14.2053 11.825 13.744 12.2637 13.744 12.8046V33.3172H3.37533C1.514 33.3172 0 34.7571 0 36.5267V48.3035C0 50.0731 1.514 51.513 3.37533 51.513H10.858V55.7243H6.28333C5.71467 55.7243 5.25333 56.1631 5.25333 56.704C5.25333 57.2448 5.714 57.6842 6.28333 57.6842H11.888H17.6607H23.2653C23.834 57.6842 24.2953 57.2454 24.2953 56.7046C24.2953 56.1637 23.834 55.725 23.2653 55.725H18.6907V51.5137H26.1733C28.034 51.5137 29.5487 50.0737 29.5487 48.3041V43.3953H51.1167C51.6853 43.3953 52.1467 42.9566 52.1467 42.4157V27.763H57.2053C58.7467 27.763 60.0007 26.5703 60.0007 25.1044V3.27867C60 1.81276 58.746 0.620117 57.2047 0.620117ZM3.37533 35.2764H26.1733C26.8987 35.2764 27.4887 35.8375 27.4887 36.5274V45.7178H2.06V36.5267C2.06 35.8375 2.65 35.2764 3.37533 35.2764ZM16.6307 55.725H12.918V51.5137H16.6307V55.725ZM26.1733 49.5538H17.6607H11.888H3.37533C2.65 49.5538 2.06 48.9933 2.06 48.3035V47.6764H27.4887V48.3035C27.4887 48.9933 26.8987 49.5538 26.1733 49.5538ZM50.086 41.4355H29.5487V36.5267C29.5487 34.7571 28.0347 33.3166 26.1733 33.3166H15.804V13.7842H40.288V25.1038C40.288 26.5697 41.542 27.7623 43.0833 27.7623H50.0867L50.086 41.4355ZM57.94 25.1038C57.94 25.4893 57.6107 25.8031 57.2047 25.8031H43.0833C42.678 25.8031 42.348 25.4893 42.348 25.1038V3.27867C42.348 2.89317 42.6773 2.57932 43.0833 2.57932H45.906V3.41055C45.906 3.95139 46.3673 4.39015 46.936 4.39015H53.3527C53.9213 4.39015 54.3827 3.95139 54.3827 3.41055V2.57932H57.2047C57.61 2.57932 57.94 2.89317 57.94 3.27867V25.1038Z" fill="#F7FBFA"/>
</svg>
