<svg width="58" height="58" viewBox="0 0 58 58" fill="none" xmlns="http://www.w3.org/2000/svg">
<path d="M14.2609 37.3667C10.3462 37.3667 7.16101 40.396 7.16101 44.1199C7.16101 47.8438 10.3462 50.8731 14.2609 50.8731C18.1764 50.8731 21.3616 47.8438 21.3616 44.1199C21.3616 40.396 18.1764 37.3667 14.2609 37.3667ZM14.2609 49.0321C11.413 49.0321 9.09602 46.8285 9.09602 44.1199C9.09602 41.4113 11.413 39.2077 14.2609 39.2077C17.1089 39.2077 19.4259 41.4113 19.4259 44.1199C19.4259 46.8285 17.1089 49.0321 14.2609 49.0321ZM31.2353 22.3215H24.4089C23.8744 22.3215 23.4414 22.7333 23.4414 23.2416V36.9842L21.7414 35.3674C21.7044 35.3321 21.6974 35.3082 21.7114 35.2603L22.1332 33.7626C22.3753 32.903 21.9653 32.0148 21.137 31.6023C20.3619 31.2164 19.5448 30.8937 18.7081 30.6435C17.8155 30.3774 16.8633 30.73 16.3953 31.5005L15.5803 32.8438C15.5537 32.887 15.5314 32.8997 15.4789 32.8997H13.0437C12.9912 32.8997 12.9688 32.887 12.943 32.8444L12.1273 31.5005C11.6592 30.7293 10.7092 30.376 9.81518 30.6435C8.97989 30.8923 8.1628 31.215 7.38627 31.6016C6.55728 32.0141 6.14734 32.9023 6.38939 33.7619L6.81123 35.2603C6.82522 35.3089 6.81892 35.3315 6.78115 35.3667L5.0595 37.0041C5.02243 37.0394 4.99794 37.0461 4.94687 37.0334L3.37354 36.6322C2.469 36.4007 1.53577 36.7912 1.10134 37.5797C0.69419 38.3182 0.355599 39.0953 0.09326 39.8904C-0.187267 40.74 0.183504 41.6442 0.995005 42.09L2.40674 42.8651C2.45221 42.8904 2.4648 42.9117 2.4648 42.9616V45.2776C2.4648 45.3275 2.45151 45.3488 2.40674 45.3741L0.994306 46.1492C0.182805 46.5943 -0.187268 47.4985 0.0925601 48.3488C0.354199 49.1432 0.693491 49.9203 1.09994 50.6589C1.53367 51.4473 2.4683 51.8365 3.37144 51.607L4.94547 51.2058C4.99654 51.1931 5.02173 51.1998 5.05811 51.2344L6.78045 52.8718C6.81682 52.9064 6.82382 52.9303 6.81053 52.9789L6.38869 54.4759C6.14664 55.3349 6.55658 56.2238 7.38487 56.6363C8.16 57.0228 8.97779 57.3455 9.81448 57.595C10.7071 57.8612 11.6585 57.5092 12.1266 56.7381L12.9423 55.3948C12.9688 55.3515 12.9912 55.3395 13.0437 55.3395H15.4789C15.5314 55.3395 15.5544 55.3522 15.5803 55.3948L16.396 56.7387C16.7598 57.3375 17.4146 57.6842 18.1072 57.6842C18.3066 57.6842 18.5087 57.6556 18.7081 57.5957C19.5441 57.3462 20.3612 57.0242 21.137 56.6376C21.966 56.2244 22.376 55.3362 22.1339 54.4773L21.7121 52.9789C21.6988 52.931 21.7058 52.9071 21.7421 52.8725L23.4421 51.2563V56.7634C23.4421 57.2717 23.8751 57.6835 24.4096 57.6835H31.236C31.7705 57.6835 32.2035 57.2717 32.2035 56.7634V23.2423C32.2035 22.734 31.7705 22.3215 31.2353 22.3215ZM20.3731 51.5704C19.8484 52.0694 19.6497 52.7747 19.8421 53.456L20.264 54.953C20.2716 54.9796 20.2647 54.9942 20.2388 55.0069C19.5644 55.3429 18.8543 55.623 18.1282 55.8392C18.1009 55.8472 18.0855 55.8419 18.0708 55.8179L17.2551 54.4739C16.8836 53.8631 16.2197 53.4985 15.4782 53.4985H13.043C12.3014 53.4985 11.6369 53.8631 11.2654 54.4746L10.4504 55.8172C10.4357 55.8405 10.4189 55.8465 10.3937 55.8385C9.66687 55.6216 8.95681 55.3415 8.28242 55.0055C8.25724 54.9929 8.25024 54.9783 8.25794 54.9523L8.67908 53.456C8.87216 52.774 8.67348 52.0687 8.1488 51.5697L6.42716 49.9323C5.90319 49.434 5.16304 49.245 4.44458 49.4273L2.87055 49.8285C2.84187 49.8352 2.82718 49.8292 2.81459 49.8046C2.4613 49.1625 2.16678 48.4872 1.93872 47.7973C1.93033 47.7713 1.93593 47.756 1.96041 47.7427L3.37354 46.9669C4.01645 46.6143 4.39981 45.9822 4.39981 45.277V42.9609C4.39981 42.2556 4.01645 41.6236 3.37424 41.271L1.96181 40.4958C1.93663 40.4819 1.93033 40.4672 1.93942 40.4413C2.16678 39.7513 2.462 39.076 2.81529 38.4339C2.82858 38.4093 2.84467 38.402 2.87125 38.41L4.44528 38.8112C5.16234 38.9942 5.90249 38.8052 6.42786 38.3062L8.1488 36.6688C8.67418 36.1698 8.87286 35.4645 8.68048 34.7832L8.25864 33.2862C8.25094 33.2596 8.25794 33.245 8.28312 33.233C8.95821 32.8963 9.66827 32.6162 10.3944 32.4C10.4224 32.392 10.4371 32.398 10.4511 32.4213L11.2668 33.7646C11.6376 34.376 12.3021 34.7407 13.0437 34.7407H15.4789C16.2204 34.7407 16.885 34.376 17.2565 33.7646L18.0715 32.4213C18.0855 32.3973 18.1016 32.392 18.1289 32.4C18.8564 32.6169 19.5658 32.8977 20.2395 33.233C20.2647 33.2456 20.2716 33.2596 20.264 33.2869L19.8421 34.7839C19.6497 35.4652 19.8484 36.1705 20.3731 36.6695L22.0947 38.3069C22.6194 38.8052 23.3602 38.9955 24.0773 38.8119L24.6593 38.6635L25.652 38.4107C25.6793 38.404 25.6947 38.4107 25.708 38.4339C25.7968 38.595 25.8703 38.764 25.9515 38.929C26.0319 39.0926 26.12 39.253 26.1928 39.4206C26.2033 39.4453 26.211 39.4705 26.2215 39.4952C26.3551 39.8065 26.4782 40.1226 26.5832 40.4419C26.5916 40.4679 26.586 40.4825 26.5615 40.4958L25.149 41.2716C24.9077 41.404 24.7034 41.575 24.5418 41.7753C24.2725 42.1086 24.1228 42.5211 24.1228 42.9622V45.2783C24.1228 45.6309 24.2186 45.9656 24.3949 46.2557C24.5712 46.5458 24.8279 46.7926 25.149 46.9689L26.423 47.6682L26.5608 47.744C26.586 47.7573 26.5916 47.7726 26.5832 47.7986C26.3558 48.4872 26.0613 49.1632 25.708 49.8059C25.6954 49.8292 25.6793 49.8345 25.6541 49.8299C25.6527 49.8299 25.6527 49.8299 25.6513 49.8299L25.4499 49.778L24.0766 49.428C23.3602 49.247 22.6194 49.4353 22.0947 49.9337L20.3731 51.5704ZM30.2678 55.8425H25.3764V51.6516C25.3967 51.6542 25.417 51.6536 25.4373 51.6556C25.4848 51.6609 25.5324 51.6629 25.58 51.6649C25.6387 51.6675 25.6975 51.6682 25.7563 51.6662C25.8073 51.6642 25.8577 51.6595 25.9074 51.6536C25.9612 51.6476 26.0144 51.6389 26.0676 51.6289C26.1187 51.619 26.1697 51.6076 26.2194 51.5937C26.2698 51.5797 26.3187 51.5631 26.3684 51.5451C26.4174 51.5271 26.4663 51.5092 26.5132 51.4879C26.5615 51.4659 26.6069 51.4413 26.6531 51.4154C26.6979 51.3907 26.742 51.3675 26.7846 51.3395C26.8315 51.3089 26.8742 51.2743 26.9183 51.2397C26.956 51.2104 26.9945 51.1825 27.0302 51.1506C27.0771 51.108 27.1197 51.0594 27.1624 51.0122C27.1897 50.9822 27.2184 50.955 27.2436 50.923C27.3051 50.8452 27.3604 50.762 27.4108 50.6742C27.4136 50.6689 27.4177 50.6642 27.4212 50.6589C27.7263 50.1046 27.9935 49.5291 28.2181 48.9403C28.2929 48.744 28.3636 48.5471 28.4286 48.3488C28.6833 47.5777 28.3978 46.766 27.7389 46.2889C27.671 46.2397 27.6031 46.1905 27.5269 46.1485L26.1145 45.3734C26.0921 45.3608 26.0774 45.3495 26.0683 45.3348C26.0592 45.3202 26.0564 45.3022 26.0564 45.2776V42.9616C26.0564 42.9117 26.0697 42.8904 26.1145 42.8658L27.5276 42.09C28.2034 41.7181 28.5671 41.0274 28.5091 40.3155C28.4972 40.1738 28.4755 40.0314 28.4286 39.8904C28.1915 39.1718 27.8893 38.4692 27.5332 37.7959C27.4954 37.724 27.4597 37.6508 27.4205 37.5797C27.3688 37.4852 27.3086 37.3974 27.2429 37.3148C27.2191 37.2849 27.1918 37.2596 27.1666 37.2317C27.1218 37.1818 27.0778 37.1319 27.0288 37.0873C26.9945 37.056 26.9574 37.0294 26.9211 37.0015C26.8763 36.9662 26.8315 36.9303 26.7832 36.899C26.7413 36.8717 26.6979 36.8484 26.6538 36.8245C26.6069 36.7985 26.5608 36.7733 26.5118 36.7513C26.4649 36.73 26.4167 36.7121 26.3677 36.6948C26.3187 36.6768 26.2691 36.6602 26.218 36.6462C26.1676 36.6322 26.1172 36.6209 26.0662 36.6109C26.013 36.6003 25.9605 36.5923 25.9067 36.5863C25.8563 36.5803 25.8052 36.5757 25.7542 36.5737C25.6961 36.571 25.638 36.5723 25.58 36.575C25.5317 36.577 25.4841 36.579 25.4359 36.5843C25.4156 36.5863 25.3953 36.5856 25.375 36.5883V24.1624H30.2664V55.8425H30.2678ZM43.6373 27.4179H36.8109C36.2764 27.4179 35.8434 27.8298 35.8434 28.3381V56.7634C35.8434 57.2717 36.2764 57.6835 36.8109 57.6835H43.6373C44.1717 57.6835 44.6048 57.2717 44.6048 56.7634V28.3381C44.6048 27.8298 44.1717 27.4179 43.6373 27.4179ZM42.6691 55.8432H37.7777V29.2589H42.6691V55.8432ZM56.0385 13.6727H49.2121C48.6777 13.6727 48.2446 14.0846 48.2446 14.5929V56.7634C48.2446 57.2717 48.6777 57.6835 49.2121 57.6835H56.0385C56.573 57.6835 57.0061 57.2717 57.0061 56.7634V14.5929C57.0061 14.0846 56.573 13.6727 56.0385 13.6727ZM55.071 55.8425H50.1796V15.513H55.071V55.8425ZM15.4208 28.9296C17.2544 28.9296 18.7459 27.4532 18.7459 25.6388C18.7459 25.0819 18.6046 24.5577 18.3569 24.0972L25.8521 18.4838C26.4041 18.8876 27.0848 19.1298 27.8228 19.1298C29.159 19.1298 30.3105 18.3441 30.8386 17.2163L36.9592 20.3228C36.9214 20.521 36.899 20.7253 36.899 20.9349C36.899 22.7493 38.3905 24.2257 40.2241 24.2257C42.0576 24.2257 43.5491 22.7493 43.5491 20.9349C43.5491 20.1398 43.2623 19.4099 42.7866 18.8404L51.5214 7.01136C51.8677 7.13245 52.2385 7.20164 52.626 7.20164C54.4596 7.20164 55.9511 5.72526 55.9511 3.91088C55.9511 2.0965 54.4596 0.620117 52.626 0.620117C50.7925 0.620117 49.301 2.0965 49.301 3.91088C49.301 4.65672 49.5556 5.34335 49.9803 5.89558L41.1979 17.7898C40.8901 17.696 40.5627 17.6455 40.2241 17.6455C39.2769 17.6455 38.4227 18.0413 37.8162 18.6734L31.0926 15.2602C30.8149 13.722 29.4556 12.5496 27.8221 12.5496C25.9885 12.5496 24.497 14.026 24.497 15.8404C24.497 16.2476 24.5754 16.6355 24.7125 16.9954L17.02 22.7566C16.545 22.4971 16.0001 22.3494 15.4201 22.3494C13.5866 22.3494 12.0951 23.8258 12.0951 25.6402C12.0958 27.4539 13.5873 28.9296 15.4208 28.9296ZM52.626 2.46177C53.3921 2.46177 54.0161 3.11247 54.0161 3.91221C54.0161 4.71195 53.3928 5.36198 52.626 5.36198C51.86 5.36198 51.2367 4.71128 51.2367 3.91221C51.2367 3.11314 51.8593 2.46177 52.626 2.46177ZM40.2241 19.4858C40.9901 19.4858 41.6134 20.1365 41.6134 20.9362C41.6134 21.736 40.9901 22.386 40.2241 22.386C39.458 22.386 38.834 21.7353 38.834 20.9362C38.834 20.1371 39.458 19.4858 40.2241 19.4858ZM27.8221 14.3893C28.5881 14.3893 29.2121 15.04 29.2121 15.8397C29.2121 16.6395 28.5888 17.2902 27.8221 17.2902C27.0554 17.2902 26.4321 16.6395 26.4321 15.8397C26.4328 15.04 27.0561 14.3893 27.8221 14.3893ZM15.4208 24.1891C16.1869 24.1891 16.8109 24.8398 16.8109 25.6395C16.8109 26.4392 16.1876 27.0893 15.4208 27.0893C14.6548 27.0893 14.0308 26.4386 14.0308 25.6395C14.0308 24.8404 14.6541 24.1891 15.4208 24.1891Z" fill="#F7FBFA"/>
</svg>
